<?xml version="1.0" standalone="no"?><!DOCTYPE svg PUBLIC "-//W3C//DTD SVG 1.1//EN" "http://www.w3.org/Graphics/SVG/1.1/DTD/svg11.dtd"><svg t="1685090683222" class="icon" viewBox="0 0 1024 1024" version="1.1" xmlns="http://www.w3.org/2000/svg" p-id="13522" xmlns:xlink="http://www.w3.org/1999/xlink" width="200" height="200"><path d="M97.907 92c16.28 0 29.523 13.001 29.898 29.18l0.008 0.706v779.34l798.28 0.002c16.281 0 29.524 13 29.907 29.18v0.706c0 16.27-13.01 29.503-29.2 29.886H97.906C81.626 961 68.383 947.999 68 931.82V121.885C68 105.381 81.39 92 97.907 92z m517.722 393.718c16.28 0.057 29.477 13.104 29.795 29.286l0.006 0.705-1.15 326.616c-0.059 16.506-13.495 29.839-30.012 29.781-16.281-0.057-29.478-13.105-29.796-29.286l-0.005-0.705 1.15-326.616c0.058-16.506 13.495-29.84 30.012-29.781zM783.53 313.297c16.281 0.037 29.494 13.069 29.831 29.25l0.007 0.705-1.15 499.037c-0.039 16.505-13.459 29.855-29.976 29.817-16.281-0.038-29.493-13.069-29.831-29.25l-0.007-0.705 1.15-499.037c0.039-16.505 13.459-29.855 29.976-29.817zM278.477 598.03c16.28 0 29.523 13 29.898 29.18l0.008 0.706V842.22c0 16.505-13.39 29.886-29.906 29.886-16.281 0-29.524-13.001-29.899-29.18l-0.008-0.706V627.917c0-16.506 13.39-29.886 29.907-29.886z m167.958-153.694c16.281 0 29.524 13 29.899 29.18l0.008 0.706V842.22c0 16.505-13.39 29.886-29.907 29.886-16.28 0-29.523-13.001-29.898-29.18l-0.009-0.706V474.223c0-16.506 13.39-29.886 29.907-29.886zM802.631 138.42c11.926 11.037 12.82 29.525 2.149 41.653l-0.526 0.581-214.346 231.316c-10.13 10.932-26.732 12.714-38.934 4.29l-0.627-0.445-113.086-82.387-174.668 212.064c-10.333 12.545-28.757 14.512-41.495 4.565l-0.602-0.483c-12.553-10.326-14.522-28.737-4.568-41.466l0.483-0.602 192.59-233.821c9.9-12.021 27.339-14.404 40.085-5.6l0.623 0.443 114.382 83.328 196.276-211.813c11.223-12.111 30.145-12.838 42.264-1.623z" fill="#1296db" p-id="13523"></path></svg>